<?xml version="1.0" encoding="utf-8"?>
<!-- Generator: Adobe Illustrator 27.0.0, SVG Export Plug-In . SVG Version: 6.00 Build 0)  -->
<svg version="1.1" id="Layer_1" xmlns="http://www.w3.org/2000/svg" xmlns:xlink="http://www.w3.org/1999/xlink" x="0px" y="0px"
	 viewBox="0 0 512 512" style="enable-background:new 0 0 512 512;" xml:space="preserve">
<style type="text/css">
	.st0{fill:#FF6C17;}
</style>
<path class="st0" d="M47.6,295.3L228.3,464c7.5,7,17.4,10.9,27.7,10.9c10.3,0,20.2-3.9,27.7-10.9l180.7-168.7
	c30.4-28.3,47.6-68,47.6-109.5V180c0-69.9-50.5-129.5-119.4-141c-45.6-7.6-92,7.3-124.6,39.9l-12,12l-12-12
	C211.4,46.3,165,31.4,119.4,39C50.5,50.5,0,110.1,0,180v5.8C0,227.3,17.2,267,47.6,295.3L47.6,295.3z"/>
</svg>
